<svg xmlns="http://www.w3.org/2000/svg" viewBox="0 0 174 40"><path fill="#fff" d="M10.1 0H.4v39.4h6.9c13 0 22.6-5.4 22.6-19.8C29.8 8.1 24.2 0 10.1 0zM7.5 35.9H4.3V3.4H10c8.8 0 15.9 4 15.9 16S18.6 35.9 7.5 35.9h0zM37.7 0h3.9v39.4h-3.9V0zm25.4 0L47 39.4h3.8L55 28.8h19.8L79 39.4h4.1L67.4 0h-4.3zm-6.7 25.4L65 3.8l8.5 21.7H56.4zM92.4 0h-3.9v39.4h19.7V36H92.4V0zm39.2 24.5c0 3.7-1.2 9.7-6.6 9.7-4.9 0-4.9-4.8-4.9-8.3V10.3h-7.5v18.3c0 6.6 3 11.4 9.8 11.4 3.7 0 7.2-1.7 9.5-4.6h.1v3.9h7.1v-29h-7.5v14.2zm40.8-14.2h-8l-5.6 9.4-5.7-9.4h-8.9l9 13.8-10 15.2h8.3l6.6-10.8 6.5 10.8h9l-9.8-15.2 8.6-13.8z"></path></svg>