<svg xmlns="http://www.w3.org/2000/svg" version="1.1" xmlns:xlink="http://www.w3.org/1999/xlink" xmlns:svgjs="http://svgjs.dev/svgjs" width="2000" height="383" viewBox="0 0 2000 383"><g transform="matrix(1,0,0,1,-1.2121212121213603,0.9885567718221466)"><svg viewBox="0 0 396 76" data-background-color="#000000" preserveAspectRatio="xMidYMid meet" height="383" width="2000" xmlns="http://www.w3.org/2000/svg" xmlns:xlink="http://www.w3.org/1999/xlink"><g id="tight-bounds" transform="matrix(1,0,0,1,0.24000000000003752,-0.19616270145817793)"><svg viewBox="0 0 395.5199999999999 76.39232540291634" height="76.39232540291634" width="395.5199999999999"><g><svg viewBox="0 0 395.52000000000004 76.39232540291636" height="76.39232540291634" width="395.5199999999999"><g><svg viewBox="0 0 395.52000000000004 76.39232540291636" height="76.39232540291636" width="395.52000000000004"><g id="textblocktransform"><svg viewBox="0 0 395.52000000000004 76.39232540291636" height="76.39232540291636" width="395.52000000000004" id="textblock"><g><svg viewBox="0 0 395.52000000000004 76.39232540291636" height="76.39232540291636" width="395.52000000000004"><g transform="matrix(1,0,0,1,0,0)"><svg width="395.52000000000004" viewBox="5.37 -36.13 190.85 36.86" height="76.39232540291636" data-palette-color="#ffffff"><path d="M27.78 0L5.37 0 5.37-32.71 9.77-32.71 9.77-4.15 27.78-4.15 27.78 0ZM45.16 0.73L45.16 0.73Q42.38 0.73 40.06-0.27 37.74-1.27 36.01-3.05 34.27-4.83 33.35-7.15 32.42-9.47 32.42-12.06L32.42-12.06Q32.42-14.65 33.35-16.97 34.27-19.29 36.01-21.07 37.74-22.85 40.06-23.88 42.38-24.9 45.16-24.9L45.16-24.9Q47.95-24.9 50.27-23.88 52.59-22.85 54.32-21.07 56.05-19.29 56.98-16.97 57.91-14.65 57.91-12.06L57.91-12.06Q57.91-9.47 56.98-7.15 56.05-4.83 54.32-3.05 52.59-1.27 50.27-0.27 47.95 0.73 45.16 0.73ZM45.16-3.17L45.16-3.17Q47.8-3.17 49.73-4.42 51.66-5.66 52.71-7.69 53.76-9.72 53.76-12.06L53.76-12.06Q53.76-14.45 52.71-16.48 51.66-18.51 49.73-19.75 47.8-21 45.16-21L45.16-21Q42.58-21 40.62-19.75 38.67-18.51 37.62-16.48 36.57-14.45 36.57-12.06L36.57-12.06Q36.57-9.72 37.62-7.69 38.67-5.66 40.62-4.42 42.58-3.17 45.16-3.17ZM70.01 0L66.01 0 66.01-27.54Q66.01-30.42 67.13-32.25 68.26-34.08 70.01-34.99 71.77-35.89 73.58-35.89L73.58-35.89Q74.85-35.89 75.87-35.55 76.9-35.21 77.63-34.57L77.63-34.57 77.63-31.05Q76.9-31.54 75.87-31.84 74.85-32.13 73.82-32.08L73.82-32.08Q72.02-32.03 71.02-30.93 70.01-29.83 70.01-27.1L70.01-27.1 70.01 0ZM77.14-20.65L62.15-20.65 62.15-24.41 77.14-24.41 77.14-20.65ZM86.37-29.49L86.37-29.49Q84.95-29.49 84-30.52 83.05-31.54 83.05-32.81L83.05-32.81Q83.05-34.13 84-35.13 84.95-36.13 86.37-36.13L86.37-36.13Q87.3-36.13 88.05-35.67 88.81-35.21 89.25-34.45 89.69-33.69 89.69-32.81L89.69-32.81Q89.69-31.98 89.25-31.2 88.81-30.42 88.05-29.96 87.3-29.49 86.37-29.49ZM88.86 0L84.86 0 84.86-24.41 88.86-24.41 88.86 0ZM88.86-20.65L81-20.65 81-24.41 88.86-24.41 88.86-20.65ZM109.9 0.73L109.9 0.73Q107.12 0.73 104.95-0.73 102.77-2.2 101.5-4.15L101.5-4.15 101.5 0 97.5 0 97.5-35.16 101.5-35.16 101.5-21.14Q103.07-22.9 105.24-23.9 107.41-24.9 109.51-24.9L109.51-24.9Q112.88-24.9 115.54-23.32 118.2-21.73 119.74-18.8 121.28-15.87 121.28-11.82L121.28-11.82Q121.28-8.11 119.74-5.27 118.2-2.44 115.64-0.85 113.08 0.73 109.9 0.73ZM109.27-3.22L109.27-3.22Q111.66-3.22 113.42-4.39 115.18-5.57 116.15-7.52 117.13-9.47 117.13-11.82L117.13-11.82Q117.13-14.21 116.13-16.28 115.13-18.36 113.27-19.65 111.42-20.95 108.78-20.95L108.78-20.95Q106.53-20.95 104.82-19.9 103.12-18.85 101.55-16.94L101.55-16.94 101.5-12.26Q101.5-9.67 102.5-7.62 103.51-5.57 105.29-4.39 107.07-3.22 109.27-3.22ZM131.87 0L127.87 0 127.87-24.41 131.87-24.41 131.87 0ZM131.87-14.75L131.87-14.75 131.87-19.53Q133.29-21.97 135.29-23.44 137.29-24.9 139.39-24.9L139.39-24.9Q140.81-24.9 141.93-24.41L141.93-24.41 141.93-19.78Q141.2-20.21 140.42-20.46 139.64-20.7 138.81-20.7L138.81-20.7Q136.32-20.7 134.78-18.95 133.24-17.19 131.87-14.75ZM158.09 0.73L158.09 0.73Q155.31 0.73 152.99-0.27 150.67-1.27 148.94-3.05 147.2-4.83 146.27-7.15 145.35-9.47 145.35-12.06L145.35-12.06Q145.35-15.53 146.86-18.46 148.37-21.39 151.03-23.14 153.7-24.9 157.11-24.9L157.11-24.9Q160.87-24.9 163.36-23.34 165.85-21.78 167.1-19.09 168.34-16.41 168.34-13.04L168.34-13.04 168.34-10.64 149.11-10.64 149.11-14.06 164.39-14.06Q164.15-16.46 163.05-17.97 161.95-19.48 160.39-20.24 158.82-21 157.11-21L157.11-21Q154.77-21 153.06-19.75 151.35-18.51 150.42-16.48 149.5-14.45 149.5-12.06L149.5-12.06Q149.5-9.72 150.55-7.69 151.6-5.66 153.55-4.42 155.5-3.17 158.09-3.17L158.09-3.17Q160.73-3.17 163-4.52 165.27-5.86 166.83-7.47L166.83-7.47 166.83-3.13Q166.15-2.29 164.8-1.39 163.46-0.49 161.73 0.12 159.99 0.73 158.09 0.73ZM185.97 0.73L185.97 0.73Q183.19 0.73 180.87-0.27 178.55-1.27 176.81-3.05 175.08-4.83 174.15-7.15 173.22-9.47 173.22-12.06L173.22-12.06Q173.22-15.53 174.74-18.46 176.25-21.39 178.91-23.14 181.57-24.9 184.99-24.9L184.99-24.9Q188.75-24.9 191.24-23.34 193.73-21.78 194.98-19.09 196.22-16.41 196.22-13.04L196.22-13.04 196.22-10.64 176.98-10.64 176.98-14.06 192.27-14.06Q192.02-16.46 190.92-17.97 189.83-19.48 188.26-20.24 186.7-21 184.99-21L184.99-21Q182.65-21 180.94-19.75 179.23-18.51 178.3-16.48 177.38-14.45 177.38-12.06L177.38-12.06Q177.38-9.72 178.42-7.69 179.47-5.66 181.43-4.42 183.38-3.17 185.97-3.17L185.97-3.17Q188.61-3.17 190.88-4.52 193.15-5.86 194.71-7.47L194.71-7.47 194.71-3.13Q194.03-2.29 192.68-1.39 191.34-0.49 189.61 0.12 187.87 0.73 185.97 0.73Z" opacity="1" transform="matrix(1,0,0,1,0,0)" fill="#ffffff" class="wordmark-text-0" data-fill-palette-color="primary" id="text-0"></path></svg></g></svg></g></svg></g></svg></g></svg></g><defs></defs></svg><rect width="395.5199999999999" height="76.39232540291634" fill="none" stroke="none" visibility="hidden"></rect></g></svg></g></svg>